<svg width="22" height="12" viewBox="0 0 22 12" fill="none" xmlns="http://www.w3.org/2000/svg">
<path d="M2 10H20C20.2833 10 20.5208 10.0959 20.7125 10.2875C20.9042 10.4792 21 10.7167 21 11C21 11.2834 20.9042 11.5209 20.7125 11.7125C20.5208 11.9042 20.2833 12 20 12H2C1.71667 12 1.47917 11.9042 1.2875 11.7125C1.09583 11.5209 1 11.2834 1 11C1 10.7167 1.09583 10.4792 1.2875 10.2875C1.47917 10.0959 1.71667 10 2 10ZM3 4.45002L2.525 5.30002C2.425 5.48336 2.275 5.60002 2.075 5.65002C1.875 5.70002 1.68333 5.67502 1.5 5.57502C1.31667 5.47502 1.2 5.32502 1.15 5.12502C1.1 4.92502 1.125 4.73336 1.225 4.55002L1.7 3.70002H0.75C0.533333 3.70002 0.354167 3.62919 0.2125 3.48752C0.0708333 3.34586 0 3.16669 0 2.95002C0 2.73336 0.0708333 2.55419 0.2125 2.41252C0.354167 2.27086 0.533333 2.20002 0.75 2.20002H1.7L1.225 1.40002C1.125 1.21669 1.1 1.02502 1.15 0.825024C1.2 0.625024 1.31667 0.475024 1.5 0.375024C1.68333 0.275024 1.875 0.250024 2.075 0.300024C2.275 0.350024 2.425 0.466691 2.525 0.650024L3 1.45002L3.475 0.650024C3.575 0.466691 3.725 0.350024 3.925 0.300024C4.125 0.250024 4.31667 0.275024 4.5 0.375024C4.68333 0.475024 4.8 0.625024 4.85 0.825024C4.9 1.02502 4.875 1.21669 4.775 1.40002L4.3 2.20002H5.25C5.46667 2.20002 5.64583 2.27086 5.7875 2.41252C5.92917 2.55419 6 2.73336 6 2.95002C6 3.16669 5.92917 3.34586 5.7875 3.48752C5.64583 3.62919 5.46667 3.70002 5.25 3.70002H4.3L4.775 4.55002C4.875 4.73336 4.9 4.92502 4.85 5.12502C4.8 5.32502 4.68333 5.47502 4.5 5.57502C4.31667 5.67502 4.125 5.70002 3.925 5.65002C3.725 5.60002 3.575 5.48336 3.475 5.30002L3 4.45002ZM11 4.45002L10.525 5.30002C10.425 5.48336 10.275 5.60002 10.075 5.65002C9.875 5.70002 9.68333 5.67502 9.5 5.57502C9.31667 5.47502 9.2 5.32502 9.15 5.12502C9.1 4.92502 9.125 4.73336 9.225 4.55002L9.7 3.70002H8.75C8.53333 3.70002 8.35417 3.62919 8.2125 3.48752C8.07083 3.34586 8 3.16669 8 2.95002C8 2.73336 8.07083 2.55419 8.2125 2.41252C8.35417 2.27086 8.53333 2.20002 8.75 2.20002H9.7L9.225 1.40002C9.125 1.21669 9.1 1.02502 9.15 0.825024C9.2 0.625024 9.31667 0.475024 9.5 0.375024C9.68333 0.275024 9.875 0.250024 10.075 0.300024C10.275 0.350024 10.425 0.466691 10.525 0.650024L11 1.45002L11.475 0.650024C11.575 0.466691 11.725 0.350024 11.925 0.300024C12.125 0.250024 12.3167 0.275024 12.5 0.375024C12.6833 0.475024 12.8 0.625024 12.85 0.825024C12.9 1.02502 12.875 1.21669 12.775 1.40002L12.3 2.20002H13.25C13.4667 2.20002 13.6458 2.27086 13.7875 2.41252C13.9292 2.55419 14 2.73336 14 2.95002C14 3.16669 13.9292 3.34586 13.7875 3.48752C13.6458 3.62919 13.4667 3.70002 13.25 3.70002H12.3L12.775 4.55002C12.875 4.73336 12.9 4.92502 12.85 5.12502C12.8 5.32502 12.6833 5.47502 12.5 5.57502C12.3167 5.67502 12.125 5.70002 11.925 5.65002C11.725 5.60002 11.575 5.48336 11.475 5.30002L11 4.45002ZM19 4.45002L18.525 5.30002C18.425 5.48336 18.275 5.60002 18.075 5.65002C17.875 5.70002 17.6833 5.67502 17.5 5.57502C17.3167 5.47502 17.2 5.32502 17.15 5.12502C17.1 4.92502 17.125 4.73336 17.225 4.55002L17.7 3.70002H16.75C16.5333 3.70002 16.3542 3.62919 16.2125 3.48752C16.0708 3.34586 16 3.16669 16 2.95002C16 2.73336 16.0708 2.55419 16.2125 2.41252C16.3542 2.27086 16.5333 2.20002 16.75 2.20002H17.7L17.225 1.40002C17.125 1.21669 17.1 1.02502 17.15 0.825024C17.2 0.625024 17.3167 0.475024 17.5 0.375024C17.6833 0.275024 17.875 0.250024 18.075 0.300024C18.275 0.350024 18.425 0.466691 18.525 0.650024L19 1.45002L19.475 0.650024C19.575 0.466691 19.725 0.350024 19.925 0.300024C20.125 0.250024 20.3167 0.275024 20.5 0.375024C20.6833 0.475024 20.8 0.625024 20.85 0.825024C20.9 1.02502 20.875 1.21669 20.775 1.40002L20.3 2.20002H21.25C21.4667 2.20002 21.6458 2.27086 21.7875 2.41252C21.9292 2.55419 22 2.73336 22 2.95002C22 3.16669 21.9292 3.34586 21.7875 3.48752C21.6458 3.62919 21.4667 3.70002 21.25 3.70002H20.3L20.775 4.55002C20.875 4.73336 20.9 4.92502 20.85 5.12502C20.8 5.32502 20.6833 5.47502 20.5 5.57502C20.3167 5.67502 20.125 5.70002 19.925 5.65002C19.725 5.60002 19.575 5.48336 19.475 5.30002L19 4.45002Z" fill="#2E3EDF"/>
</svg>
